<svg width="52" height="53" viewBox="0 0 52 53" fill="none" xmlns="http://www.w3.org/2000/svg">
<path d="M45.5 15.9359V37.6025C45.5 44.1025 42.25 48.4359 34.6667 48.4359H17.3333C9.75 48.4359 6.5 44.1025 6.5 37.6025V15.9359C6.5 9.43587 9.75 5.10254 17.3333 5.10254H34.6667C42.25 5.10254 45.5 9.43587 45.5 15.9359Z" stroke="#CD010C" stroke-width="3" stroke-miterlimit="10" stroke-linecap="round" stroke-linejoin="round"/>
<path d="M33.5832 5.10254V22.1325C33.5832 23.0858 32.4564 23.5625 31.7631 22.9342L26.7366 18.2976C26.3249 17.9076 25.6748 17.9076 25.2631 18.2976L20.2366 22.9342C19.5432 23.5625 18.4165 23.0858 18.4165 22.1325V5.10254H33.5832Z" stroke="#CD010C" stroke-width="3" stroke-miterlimit="10" stroke-linecap="round" stroke-linejoin="round"/>
<path d="M28.7085 31.1025H37.9168" stroke="#CD010C" stroke-width="3" stroke-miterlimit="10" stroke-linecap="round" stroke-linejoin="round"/>
<path d="M19.5 39.7695H37.9167" stroke="#CD010C" stroke-width="3" stroke-miterlimit="10" stroke-linecap="round" stroke-linejoin="round"/>
</svg>
