<svg width="54" height="54" viewBox="0 0 54 54" fill="none" xmlns="http://www.w3.org/2000/svg">
<path d="M20.5264 24.6533C20.3027 24.6313 20.0342 24.6313 19.7881 24.6533C14.4631 24.4772 10.2344 20.186 10.2344 14.9045C10.2344 9.51302 14.6644 5.13379 20.1684 5.13379C25.6501 5.13379 30.1025 9.51302 30.1025 14.9045C30.0801 20.186 25.8514 24.4772 20.5264 24.6533Z" stroke="#CD010C" stroke-width="3" stroke-linecap="round" stroke-linejoin="round"/>
<path d="M36.7469 9.53516C41.0875 9.53516 44.5778 12.9901 44.5778 17.2373C44.5778 21.3965 41.2217 24.7854 37.0378 24.9395C36.8588 24.9175 36.6574 24.9175 36.4561 24.9395" stroke="#CD010C" stroke-width="3" stroke-linecap="round" stroke-linejoin="round"/>
<path d="M9.33921 32.7733C3.92469 36.3383 3.92469 42.1479 9.33921 45.6909C15.4921 49.74 25.5828 49.74 31.7356 45.6909C37.1501 42.1259 37.1501 36.3163 31.7356 32.7733C25.6051 28.7461 15.5144 28.7461 9.33921 32.7733Z" stroke="#CD010C" stroke-width="3" stroke-linecap="round" stroke-linejoin="round"/>
<path d="M41.0654 44.7452C42.6764 44.4151 44.1978 43.7769 45.4507 42.8307C48.9411 40.2559 48.9411 36.0088 45.4507 33.434C44.2202 32.5098 42.7211 31.8936 41.1326 31.5415" stroke="#CD010C" stroke-width="3" stroke-linecap="round" stroke-linejoin="round"/>
</svg>
