<svg width="56" height="57" viewBox="0 0 56 57" fill="none" xmlns="http://www.w3.org/2000/svg">
<path d="M23.3327 40.3195H14.4893C6.62602 40.3195 4.66602 38.3595 4.66602 30.4962V16.4962C4.66602 8.63285 6.62602 6.67285 14.4893 6.67285H39.0593C46.9227 6.67285 48.8827 8.63285 48.8827 16.4962" stroke="#CD010C" stroke-width="3" stroke-linecap="round" stroke-linejoin="round"/>
<path d="M23.334 50.866V40.3193" stroke="#CD010C" stroke-width="3" stroke-linecap="round" stroke-linejoin="round"/>
<path d="M4.66602 30.9863H23.3327" stroke="#CD010C" stroke-width="3" stroke-linecap="round" stroke-linejoin="round"/>
<path d="M15.7266 50.8662H23.3332" stroke="#CD010C" stroke-width="3" stroke-linecap="round" stroke-linejoin="round"/>
<path d="M51.333 30.6362V43.9595C51.333 49.4895 49.9563 50.8662 44.4263 50.8662H36.143C30.613 50.8662 29.2363 49.4895 29.2363 43.9595V30.6362C29.2363 25.1062 30.613 23.7295 36.143 23.7295H44.4263C49.9563 23.7295 51.333 25.1062 51.333 30.6362Z" stroke="#CD010C" stroke-width="3" stroke-linecap="round" stroke-linejoin="round"/>
<path d="M40.2378 43.3532H40.2588" stroke="#CD010C" stroke-width="3" stroke-linecap="round" stroke-linejoin="round"/>
</svg>
