<?xml version="1.0" encoding="UTF-8"?>
<!DOCTYPE svg PUBLIC "-//W3C//DTD SVG 1.1//EN" "http://www.w3.org/Graphics/SVG/1.1/DTD/svg11.dtd">
<!-- Creator: CorelDRAW -->
<svg xmlns="http://www.w3.org/2000/svg" xml:space="preserve" width="297mm" height="210mm" version="1.1" style="shape-rendering:geometricPrecision; text-rendering:geometricPrecision; image-rendering:optimizeQuality; fill-rule:evenodd; clip-rule:evenodd"
viewBox="0 0 29700 21000"
 xmlns:xlink="http://www.w3.org/1999/xlink"
 xmlns:xodm="http://www.corel.com/coreldraw/odm/2003">
 <defs>
  <style type="text/css">
   <![CDATA[
    .fil0 {fill:#137ABF}
    .fil1 {fill:#AD0E13}
   ]]>
  </style>
 </defs>
 <g id="Слой_x0020_1">
  <metadata id="CorelCorpID_0Corel-Layer"/>
  <path class="fil0" d="M3978.03 16059.29l-137.3 5.79 0 166.32 537.61 0 0 -166.32 -166.32 -5.79 0 -361.61 108.33 0c177.91,0 280.39,-23.23 363.52,-79.31 100.57,-69.57 156.65,-181.79 156.65,-322.91 0,-139.27 -54.17,-253.34 -150.86,-322.97 -83.13,-57.99 -183.7,-79.31 -388.66,-79.31l-460.27 0 0 166.32 137.3 5.79 0 994zm230.1 -545.31l0 -437.04 87.08 0c115.97,0 172.11,11.59 220.43,42.52 54.16,34.82 85.1,102.48 85.1,181.79 0,85.11 -34.82,150.8 -94.78,179.82 -48.31,25.14 -104.39,32.91 -222.4,32.91l-75.43 0zm1597.42 303.56l87.01 241.75 -143.09 5.79 0 166.32 516.29 0 0 -166.32 -127.63 -5.79 -442.83 -1166.11 -261.03 0 -431.25 1166.11 -127.68 5.79 0 166.32 502.79 0 0 -166.32 -143.09 -5.79 87.01 -241.75 483.5 0zm-63.84 -175.94l-357.73 0 104.39 -293.94c25.14,-73.52 40.61,-116.04 44.49,-125.72 7.71,-27.05 13.56,-48.31 30.94,-104.39 27.05,92.81 42.52,135.33 75.43,230.11l102.48 293.94zm576.3 537.61c143.1,50.28 274.6,73.45 437.04,73.45 166.32,0 291.98,-30.93 380.96,-96.68 92.81,-67.67 146.97,-177.91 146.97,-303.62 0,-181.73 -90.89,-280.39 -286.18,-319.09 174.03,-32.85 270.72,-143.09 270.72,-313.24 0,-224.31 -172.12,-348.11 -483.44,-348.11 -150.86,0 -280.45,23.23 -431.25,79.31l0 332.58 185.61 0 17.44 -199.17c75.43,-19.35 131.51,-27.05 203.05,-27.05 175.94,0 272.63,65.75 272.63,183.7 0,61.87 -32.85,116.04 -94.72,152.77 -61.87,38.7 -145.06,54.17 -284.27,54.17 -36.73,0 -54.17,0 -90.89,-3.89l-5.8 179.82c56.08,-1.91 85.04,-1.91 123.74,-1.91 251.43,0 365.5,67.66 365.5,220.43 0,145.06 -108.28,222.4 -309.42,222.4 -125.71,0 -239.78,-23.17 -365.49,-73.45l-52.2 187.58zm1282.09 -118.01l-137.3 3.88 0 166.32 537.61 0c174.03,0 257.22,-17.37 336.47,-65.75 98.66,-63.84 152.76,-172.11 152.76,-303.62 0,-174.03 -87.01,-276.51 -262.95,-313.23 158.56,-40.61 233.99,-137.36 233.99,-301.71 0,-129.54 -56.08,-239.78 -150.86,-291.98 -81.22,-46.46 -166.32,-61.93 -351.93,-61.93l-495.09 0 0 166.32 137.3 3.88 0 997.82zm230.1 -589.8l0 -400.31 98.66 0c123.75,0 172.12,9.67 220.43,40.61 46.41,29.02 73.52,88.98 73.52,162.44 0,71.61 -25.14,127.68 -71.54,158.62 -40.61,27.05 -100.57,38.64 -212.73,38.64l-108.34 0zm0 582.1l0 -417.69 112.22 0c102.48,0 152.77,7.7 203.05,32.84 65.76,32.91 102.48,94.78 102.48,177.91 0,81.22 -32.9,146.98 -87.01,176 -46.46,25.14 -92.87,30.94 -220.49,30.94l-110.25 0zm968.86 5.79l-137.3 5.79 0 166.32 504.76 0 0 -166.32 -139.27 -5.79 0 -32.85 568.54 -672.99 0 705.84 -137.3 5.79 0 166.32 504.77 0 0 -166.32 -139.27 -5.79 0 -994 139.27 -5.79 0 -166.32 -504.77 0 0 166.32 137.3 5.79 0 23.24 -568.54 672.93 0 -696.17 139.27 -5.79 0 -166.32 -504.76 0 0 166.32 137.3 5.79 0 994zm1692.07 0l-193.38 5.79 0 166.32 618.83 0 0 -166.32 -191.47 -5.79 0 -982.35 253.34 0 11.65 191.41 183.7 0 0 -375.17 -1125.5 0 0 375.17 181.79 0 13.55 -191.41 247.49 0 0 982.35zm906.98 0l-137.3 5.79 0 166.32 504.76 0 0 -166.32 -139.27 -5.79 0 -32.85 568.54 -672.99 0 705.84 -137.29 5.79 0 166.32 504.76 0 0 -166.32 -139.27 -5.79 0 -994 139.27 -5.79 0 -166.32 -504.76 0 0 166.32 137.29 5.79 0 23.24 -568.54 672.93 0 -696.17 139.27 -5.79 0 -166.32 -504.76 0 0 166.32 137.3 5.79 0 994zm1442.61 0l-137.29 5.79 0 166.32 974.64 0 0 -380.95 -181.79 0 -13.5 197.25 -408.07 0 0 -402.22 379.05 0 0 -185.67 -379.05 0 0 -382.87 379.05 0 11.58 191.41 183.71 0 0 -375.17 -945.62 0 0 166.32 137.29 5.79 0 994zm1645.67 0l-137.3 5.79 0 166.32 510.56 0 0 -166.32 -139.27 -5.79 0 -982.35 518.26 0 0 982.35 -139.21 5.79 0 166.32 510.55 0 0 -166.32 -137.36 -5.79 0 -994 137.36 -5.79 0 -166.32 -1260.89 0 0 166.32 137.3 5.79 0 994zm1403.98 0l-137.3 5.79 0 166.32 974.65 0 0 -380.95 -181.79 0 -13.5 197.25 -408.07 0 0 -402.22 379.05 0 0 -185.67 -379.05 0 0 -382.87 379.05 0 11.58 191.41 183.7 0 0 -375.17 -945.62 0 0 166.32 137.3 5.79 0 994zm1162.23 0l-137.3 5.79 0 166.32 537.61 0 0 -166.32 -166.33 -5.79 0 -361.61 108.34 0c177.91,0 280.39,-23.23 363.52,-79.31 100.57,-69.57 156.65,-181.79 156.65,-322.91 0,-139.27 -54.17,-253.34 -150.86,-322.97 -83.13,-57.99 -183.7,-79.31 -388.66,-79.31l-460.27 0 0 166.32 137.3 5.79 0 994zm230.1 -545.31l0 -437.04 87.08 0c115.97,0 172.11,11.59 220.43,42.52 54.16,34.82 85.1,102.48 85.1,181.79 0,85.11 -34.82,150.8 -94.78,179.82 -48.31,25.14 -104.39,32.91 -222.4,32.91l-75.43 0zm1755.98 460.21c-127.63,67.72 -199.17,88.98 -309.42,88.98 -251.42,0 -408.01,-189.49 -408.01,-497 0,-307.5 154.68,-504.76 392.55,-504.76 56.07,0 106.36,7.77 156.64,25.14l17.38 197.26 185.67 0 0 -342.26c-133.47,-50.28 -235.95,-69.63 -363.58,-69.63 -388.66,0 -632.32,268.8 -632.32,700.05 0,425.45 241.69,680.69 642,680.69 143.09,0 235.96,-21.26 382.93,-88.92l-63.84 -189.55zm862.49 -1102.27c-179.89,0 -321,52.19 -425.46,160.53 -123.74,123.74 -195.28,315.21 -195.28,522.14 0,195.28 48.31,355.82 148.88,485.35 110.25,143.09 264.92,212.72 471.86,212.72 179.81,0 320.99,-52.19 425.45,-160.46 127.62,-127.69 195.28,-315.27 195.28,-529.91 0,-187.58 -50.28,-350.02 -148.88,-477.65 -110.25,-143.09 -263.01,-212.72 -471.85,-212.72zm0 189.49c232.07,0 377.07,193.44 377.07,500.88 0,307.51 -145,500.88 -377.07,500.88 -233.99,0 -377.08,-193.37 -377.08,-506.67 0,-301.65 146.97,-495.09 377.08,-495.09zm934.03 997.88l-137.3 5.79 0 166.32 510.56 0 0 -166.32 -139.27 -5.79 0 -419.66 560.84 0 0 419.66 -137.3 5.79 0 166.32 510.49 0 0 -166.32 -139.21 -5.79 0 -994 139.21 -5.79 0 -166.32 -510.49 0 0 166.32 137.3 5.79 0 390.64 -560.84 0 0 -390.64 139.27 -5.79 0 -166.32 -510.56 0 0 166.32 137.3 5.79 0 994zm2144.64 -241.75l87.01 241.75 -143.09 5.79 0 166.32 516.28 0 0 -166.32 -127.62 -5.79 -442.83 -1166.11 -261.04 0 -431.24 1166.11 -127.69 5.79 0 166.32 502.79 0 0 -166.32 -143.09 -5.79 87.01 -241.75 483.51 0zm-63.85 -175.94l-357.72 0 104.39 -293.94c25.14,-73.52 40.61,-116.04 44.49,-125.72 7.7,-27.05 13.56,-48.31 30.94,-104.39 27.05,92.81 42.52,135.33 75.42,230.11l102.48 293.94zm705.84 -576.31l0 673c0,278.48 -19.28,311.32 -201.07,326.79l0 166.32c154.67,-1.91 243.66,-19.35 307.44,-57.98 96.69,-59.96 121.83,-137.3 121.83,-380.96l0 -709.73 444.8 0 0 976.56 -139.21 5.79 0 166.32 510.49 0 0 -166.32 -137.29 -5.79 0 -994 137.29 -5.79 0 -166.32 -1183.48 0 0 166.32 139.2 5.79zm2022.81 752.25l87.01 241.75 -143.09 5.79 0 166.32 516.29 0 0 -166.32 -127.63 -5.79 -442.82 -1166.11 -261.04 0 -431.25 1166.11 -127.68 5.79 0 166.32 502.79 0 0 -166.32 -143.09 -5.79 87.01 -241.75 483.5 0zm-63.84 -175.94l-357.73 0 104.39 -293.94c25.14,-73.52 40.61,-116.04 44.49,-125.72 7.71,-27.05 13.56,-48.31 30.94,-104.39 27.05,92.81 42.52,135.33 75.43,230.11l102.48 293.94z"/>
  <path class="fil1" d="M9367.29 18011.1c-34.26,72.84 -65.69,94.29 -137.11,94.29 -28.6,0 -48.62,-2.84 -81.47,-9.98l-19.97 134.27c40,9.99 70.01,14.3 112.84,14.3 151.47,0 218.58,-58.6 305.71,-264.3l258.64 -612.92 88.55 -4.31 0 -122.82 -360 0 0 122.82 104.26 4.31 -100.01 242.86c-35.68,87.2 -58.54,145.74 -89.97,237.19 -37.16,-95.7 -37.16,-97.18 -55.71,-140.01 -12.88,-31.42 -25.76,-62.85 -40.06,-94.28l-105.68 -247.17 102.85 -2.9 0 -122.82 -380.04 0 0 122.82 92.87 4.31 304.3 644.34zm1152.98 90.04l-130.02 4.25 0 122.88 404.37 0 0 -122.88 -101.49 -4.25 0 -734.38 101.49 -4.31 0 -122.82 -377.2 0 0 122.82 102.85 4.31 0 357.18c-62.85,77.15 -142.84,122.87 -218.58,122.87 -61.43,0 -108.58,-22.86 -128.6,-62.85 -14.24,-25.76 -18.55,-57.19 -18.55,-122.88l0 -294.32 102.85 -4.31 0 -122.82 -364.32 0 0 122.82 88.61 4.31 0 314.35c0,104.27 9.98,159.97 37.16,202.86 39.99,67.11 118.57,102.85 225.73,102.85 107.1,0 188.57,-32.84 275.7,-111.41l0 225.73zm482.95 0l-101.43 4.25 0 122.88 720.07 0 0 -281.44 -134.34 0 -9.98 145.74 -301.46 0 0 -297.21 280.02 0 0 -137.11 -280.02 0 0 -282.92 280.02 0 8.56 141.43 135.76 0 0 -277.13 -698.63 0 0 122.82 101.43 4.31 0 734.38zm858.67 0l-101.43 4.25 0 122.88 405.73 0c117.15,0 182.9,-15.72 240.02,-54.29 77.16,-52.88 115.73,-140.01 115.73,-258.58 0,-118.62 -39.99,-207.18 -115.73,-258.63 -57.12,-38.58 -128.6,-54.29 -254.32,-54.29l-117.14 0 0 -227.15 270.03 0 9.98 137.17 134.28 0 0 -272.87 -688.58 0 0 122.82 101.43 4.31 0 734.38zm172.86 -4.32l0 -362.9 94.28 0c74.32,0 124.3,11.46 155.72,34.32 37.16,27.12 58.61,81.41 58.61,147.16 0,65.69 -21.45,119.98 -58.61,147.16 -31.42,24.28 -81.4,34.26 -158.56,34.26l-91.44 0zm705.77 4.32l-101.43 4.25 0 122.88 377.14 0 0 -122.88 -102.85 -4.25 0 -310.03 414.3 0 0 310.03 -101.44 4.25 0 122.88 377.2 0 0 -122.88 -102.85 -4.25 0 -734.38 102.85 -4.31 0 -122.82 -377.2 0 0 122.82 101.44 4.31 0 288.59 -414.3 0 0 -288.59 102.85 -4.31 0 -122.82 -377.14 0 0 122.82 101.43 4.31 0 734.38zm1068.69 0l-101.44 4.25 0 122.88 400 0c128.61,0 190.05,-12.88 248.6,-54.29 74.31,-52.88 112.89,-140.01 112.89,-258.58 0,-118.62 -38.58,-205.76 -112.89,-258.63 -58.55,-41.41 -119.99,-54.29 -248.6,-54.29l-125.71 0 0 -235.72 122.88 -4.31 0 -122.82 -397.17 0 0 122.82 101.44 4.31 0 734.38zm172.85 -4.32l0 -362.9 88.62 0c87.13,0 131.38,10.04 164.29,34.32 35.68,27.12 55.7,81.41 55.7,147.16 0,65.69 -20.02,119.98 -55.7,147.16 -32.91,25.7 -77.16,34.26 -167.19,34.26l-85.72 0zm637.19 4.32l-102.85 4.25 0 122.88 377.2 0 0 -122.88 -101.49 -4.25 0 -734.38 101.49 -4.31 0 -122.82 -377.2 0 0 122.82 102.85 4.31 0 734.38zm481.47 0l-101.43 4.25 0 122.88 372.88 0 0 -122.88 -102.85 -4.25 0 -24.34 420.03 -497.19 0 521.53 -101.43 4.25 0 122.88 372.89 0 0 -122.88 -102.92 -4.25 0 -734.38 102.92 -4.31 0 -122.82 -372.89 0 0 122.82 101.43 4.31 0 17.14 -420.03 497.18 0 -514.32 102.85 -4.31 0 -122.82 -372.88 0 0 122.82 101.43 4.31 0 734.38zm144.26 -1161.55c1.48,70 10.05,110 34.33,145.74 37.16,58.54 105.68,88.55 200.03,88.55 94.28,0 162.87,-30.01 201.45,-88.55 22.86,-35.74 32.84,-74.32 34.26,-145.74l-107.16 0c-5.73,79.98 -42.83,112.89 -128.55,112.89 -84.3,0 -121.46,-32.91 -128.61,-112.89l-105.75 0zm1278.7 1161.55l-101.43 4.25 0 122.88 787.18 0 20.03 240.02 130.03 0 0 -370.05 -121.47 -2.83 0 -728.65 102.86 -4.31 0 -122.82 -377.14 0 0 122.82 101.43 4.31 0 725.81 -368.63 0 0 -725.81 102.85 -4.31 0 -122.82 -377.14 0 0 122.82 101.43 4.31 0 734.38zm1032.94 0l-101.43 4.25 0 122.88 720.07 0 0 -281.44 -134.34 0 -9.98 145.74 -301.46 0 0 -297.21 280.01 0 0 -137.11 -280.01 0 0 -282.92 280.01 0 8.57 141.43 135.76 0 0 -277.13 -698.63 0 0 122.82 101.43 4.31 0 734.38zm858.67 0l-101.43 4.25 0 122.88 377.13 0 0 -122.88 -102.85 -4.25 0 -310.03 414.3 0 0 310.03 -101.43 4.25 0 122.88 377.2 0 0 -122.88 -102.85 -4.25 0 -734.38 102.85 -4.31 0 -122.82 -377.2 0 0 122.82 101.43 4.31 0 288.59 -414.3 0 0 -288.59 102.85 -4.31 0 -122.82 -377.13 0 0 122.82 101.43 4.31 0 734.38zm1253 0l-142.91 4.25 0 122.88 457.19 0 0 -122.88 -141.43 -4.25 0 -725.81 187.16 0 8.56 141.43 135.76 0 0 -277.13 -831.55 0 0 277.13 134.34 0 9.98 -141.43 182.9 0 0 725.81zm670.04 0l-101.44 4.25 0 122.88 397.17 0 0 -122.88 -122.88 -4.25 0 -267.2 79.99 0c131.44,0 207.18,-17.14 268.62,-58.55 74.32,-51.45 115.73,-134.34 115.73,-238.61 0,-102.85 -40,-187.15 -111.42,-238.6 -61.44,-42.83 -135.76,-58.55 -287.17,-58.55l-340.04 0 0 122.82 101.44 4.31 0 734.38zm170.02 -402.9l0 -322.91 64.27 0c85.72,0 127.13,8.57 162.87,31.43 40,25.76 62.86,75.73 62.86,134.28 0,62.91 -25.7,111.47 -70.01,132.92 -35.68,18.55 -77.15,24.28 -164.29,24.28l-55.7 0z"/>
  <polygon class="fil1" points="11590.91,4558.69 11583.22,8265.01 11977.71,7739.57 12502.76,7017.19 12511.73,5475.76 17177.63,5466.05 17818.14,4556.91 "/>
  <path class="fil1" d="M15526.77 10273.87c-82.93,116.07 -630.97,844.92 -648.5,918.67l3351.24 4.9 -1 -4630.05c-54.86,42.87 -90.88,107.36 -138.23,172.46l-723.66 998.23 -5.3 2533.52 -1834.55 2.27z"/>
  <polygon class="fil0" points="18984.24,5037.32 19380.94,5303.82 19575.43,3428.69 17861.73,4193.06 18230.78,4494.12 13389,11192.9 14496.41,11193.15 "/>
  <path class="fil0" d="M11622.95 11192.37l1109.81 0.39 3444.22 -4763 -734.22 -522.95 -3819.81 5285.56zm2652.38 -4613.28c-115.68,-60.68 -645.32,-486.96 -725.23,-509.35l-1965.49 2763.07 -5.42 1476.38 2696.14 -3730.1z"/>
  <path class="fil0" d="M14947.91 12846.11l0 -0.05c1792.63,-455.75 3818.36,-605.75 4997.46,-732.61 206.96,-28.33 1736.19,-165.21 1975.42,-205.56 77.29,-13.07 66.75,-40.83 86.21,-106.02l126.65 -1823.66 550.35 -7873.54c-3004.38,166.83 -4983.64,765.23 -7737.05,1147.84 -2753.4,-382.61 -4732.66,-981.01 -7737.05,-1147.84l550.36 7873.54 123.55 1778.81c4.94,71.35 4.89,136.62 89.31,150.87 239.22,40.35 1768.45,177.23 1975.41,205.56 1179.1,126.86 3206.71,276.9 4999.38,732.66zm-0.96 -58.5c0,-0.22 -22.86,-6.12 -23.08,-6.21 -1593.19,-551.66 -3257.99,-820.79 -4955.18,-1202.05 -229.96,-51.63 -1168.87,-183.65 -1343.66,-275.07 -67.41,-35.28 -64.87,-51.15 -69.59,-126.3l-273.28 -4398.18c-72.18,-1477.69 -127.22,-2945.37 -271.88,-4374.7 2649.01,182.87 4504.28,703.71 6946.07,1038.68 2441.79,-334.97 4278.27,-855.81 6927.28,-1038.68 -144.66,1429.33 -199.71,2897.01 -271.88,4374.7l-271.44 4368.37c-6.78,109.34 9.35,121.4 -86.43,163.28 -207.7,91.02 -1104.65,217.58 -1328.66,267.9 -1697.19,381.26 -3361.95,650.39 -4955.18,1202.05 -0.22,0.09 -23.09,5.99 -23.09,6.21z"/>
  <path class="fil0" d="M7051.3 13038.11c40.61,-80.87 5947.22,74.19 6946.94,163.46 173.82,264.23 543.76,446.75 972.15,446.75 428.56,0 798.67,-182.7 972.4,-447.1 1011.79,-89.31 6902.4,-243.9 6942.97,-163.11l756.35 -10189.94 -522.46 32.22 -648.94 9534.23c-2331.71,271.52 -4403.74,208.48 -6738.29,742.8 -50.88,30.21 -105.58,57.44 -163.37,81.36 -173.16,80.04 -378.46,126.38 -598.66,126.38 -220.16,0 -425.51,-46.34 -598.67,-126.38 -51.32,-21.3 -100.2,-45.12 -146.1,-71.4 -2406.86,-549.83 -4380.35,-475.68 -6759.31,-752.76l-648.94 -9534.23 -522.47 -32.22 756.4 10189.94z"/>
 </g>
</svg>
