<svg width="45" height="46" viewBox="0 0 45 46" fill="none" xmlns="http://www.w3.org/2000/svg">
<path d="M13.5 23.627C13.5 23.3286 13.6185 23.0424 13.8295 22.8315C14.0405 22.6205 14.3266 22.502 14.625 22.502C14.9234 22.502 15.2095 22.6205 15.4205 22.8315C15.6315 23.0424 15.75 23.3286 15.75 23.627C15.75 23.9253 15.6315 24.2115 15.4205 24.4224C15.2095 24.6334 14.9234 24.752 14.625 24.752C14.3266 24.752 14.0405 24.6334 13.8295 24.4224C13.6185 24.2115 13.5 23.9253 13.5 23.627ZM14.625 27.002C14.3266 27.002 14.0405 27.1205 13.8295 27.3315C13.6185 27.5424 13.5 27.8286 13.5 28.127C13.5 28.4253 13.6185 28.7115 13.8295 28.9224C14.0405 29.1334 14.3266 29.252 14.625 29.252C14.9234 29.252 15.2095 29.1334 15.4205 28.9224C15.6315 28.7115 15.75 28.4253 15.75 28.127C15.75 27.8286 15.6315 27.5424 15.4205 27.3315C15.2095 27.1205 14.9234 27.002 14.625 27.002ZM13.5 32.627C13.5 32.3286 13.6185 32.0424 13.8295 31.8315C14.0405 31.6205 14.3266 31.502 14.625 31.502C14.9234 31.502 15.2095 31.6205 15.4205 31.8315C15.6315 32.0424 15.75 32.3286 15.75 32.627C15.75 32.9253 15.6315 33.2115 15.4205 33.4224C15.2095 33.6334 14.9234 33.752 14.625 33.752C14.3266 33.752 14.0405 33.6334 13.8295 33.4224C13.6185 33.2115 13.5 32.9253 13.5 32.627ZM19.125 22.502C18.8266 22.502 18.5405 22.6205 18.3295 22.8315C18.1185 23.0424 18 23.3286 18 23.627C18 23.9253 18.1185 24.2115 18.3295 24.4224C18.5405 24.6334 18.8266 24.752 19.125 24.752H30.375C30.6734 24.752 30.9595 24.6334 31.1705 24.4224C31.3815 24.2115 31.5 23.9253 31.5 23.627C31.5 23.3286 31.3815 23.0424 31.1705 22.8315C30.9595 22.6205 30.6734 22.502 30.375 22.502H19.125ZM18 28.127C18 27.8286 18.1185 27.5424 18.3295 27.3315C18.5405 27.1205 18.8266 27.002 19.125 27.002H30.375C30.6734 27.002 30.9595 27.1205 31.1705 27.3315C31.3815 27.5424 31.5 27.8286 31.5 28.127C31.5 28.4253 31.3815 28.7115 31.1705 28.9224C30.9595 29.1334 30.6734 29.252 30.375 29.252H19.125C18.8266 29.252 18.5405 29.1334 18.3295 28.9224C18.1185 28.7115 18 28.4253 18 28.127ZM19.125 31.502C18.8266 31.502 18.5405 31.6205 18.3295 31.8315C18.1185 32.0424 18 32.3286 18 32.627C18 32.9253 18.1185 33.2115 18.3295 33.4224C18.5405 33.6334 18.8266 33.752 19.125 33.752H30.375C30.6734 33.752 30.9595 33.6334 31.1705 33.4224C31.3815 33.2115 31.5 32.9253 31.5 32.627C31.5 32.3286 31.3815 32.0424 31.1705 31.8315C30.9595 31.6205 30.6734 31.502 30.375 31.502H19.125ZM13.5 4.50195C12.3065 4.50195 11.1619 4.97606 10.318 5.81997C9.47411 6.66389 9 7.80848 9 9.00195V36.002C9 37.1954 9.47411 38.34 10.318 39.1839C11.1619 40.0278 12.3065 40.502 13.5 40.502H31.5C32.6935 40.502 33.8381 40.0278 34.682 39.1839C35.5259 38.34 36 37.1954 36 36.002V16.6835C35.9992 15.7886 35.6431 14.9308 35.01 14.2985L26.2035 5.4897C25.5708 4.85741 24.713 4.50214 23.8185 4.50195H13.5ZM11.25 9.00195C11.25 8.40522 11.4871 7.83292 11.909 7.41096C12.331 6.98901 12.9033 6.75195 13.5 6.75195H22.5V14.627C22.5 15.5221 22.8556 16.3805 23.4885 17.0134C24.1214 17.6464 24.9799 18.002 25.875 18.002H33.75V36.002C33.75 36.5987 33.5129 37.171 33.091 37.5929C32.669 38.0149 32.0967 38.252 31.5 38.252H13.5C12.9033 38.252 12.331 38.0149 11.909 37.5929C11.4871 37.171 11.25 36.5987 11.25 36.002V9.00195ZM33.2843 15.752H25.875C25.5766 15.752 25.2905 15.6334 25.0795 15.4224C24.8685 15.2115 24.75 14.9253 24.75 14.627V7.2177L33.2843 15.752Z" fill="#CD010C"/>
</svg>
