<svg width="45" height="46" viewBox="0 0 45 46" fill="none" xmlns="http://www.w3.org/2000/svg">
<path fill-rule="evenodd" clip-rule="evenodd" d="M14.0643 32.5758C14.0643 32.2028 14.2124 31.8451 14.4762 31.5814C14.7399 31.3177 15.0976 31.1695 15.4705 31.1695H40.783C41.156 31.1695 41.5137 31.3177 41.7774 31.5814C42.0411 31.8451 42.1893 32.2028 42.1893 32.5758C42.1893 32.9487 42.0411 33.3064 41.7774 33.5701C41.5137 33.8339 41.156 33.982 40.783 33.982H15.4705C15.0976 33.982 14.7399 33.8339 14.4762 33.5701C14.2124 33.3064 14.0643 32.9487 14.0643 32.5758ZM14.0643 21.3258C14.0643 20.9528 14.2124 20.5951 14.4762 20.3314C14.7399 20.0677 15.0976 19.9195 15.4705 19.9195H40.783C41.156 19.9195 41.5137 20.0677 41.7774 20.3314C42.0411 20.5951 42.1893 20.9528 42.1893 21.3258C42.1893 21.6987 42.0411 22.0564 41.7774 22.3201C41.5137 22.5839 41.156 22.732 40.783 22.732H15.4705C15.0976 22.732 14.7399 22.5839 14.4762 22.3201C14.2124 22.0564 14.0643 21.6987 14.0643 21.3258ZM14.0643 10.0758C14.0643 9.7028 14.2124 9.34511 14.4762 9.08139C14.7399 8.81766 15.0976 8.66951 15.4705 8.66951H40.783C41.156 8.66951 41.5137 8.81766 41.7774 9.08139C42.0411 9.34511 42.1893 9.7028 42.1893 10.0758C42.1893 10.4487 42.0411 10.8064 41.7774 11.0701C41.5137 11.3338 41.156 11.482 40.783 11.482H15.4705C15.0976 11.482 14.7399 11.3338 14.4762 11.0701C14.2124 10.8064 14.0643 10.4487 14.0643 10.0758ZM10.8412 6.26763C10.9721 6.39826 11.076 6.55344 11.1469 6.72429C11.2178 6.89513 11.2543 7.07829 11.2543 7.26326C11.2543 7.44823 11.2178 7.63138 11.1469 7.80223C11.076 7.97307 10.9721 8.12825 10.8412 8.25888L6.6224 12.4776C6.49177 12.6086 6.33659 12.7125 6.16575 12.7834C5.9949 12.8543 5.81175 12.8908 5.62678 12.8908C5.44181 12.8908 5.25865 12.8543 5.08781 12.7834C4.91696 12.7125 4.76178 12.6086 4.63115 12.4776L3.2249 11.0714C3.09415 10.9406 2.99044 10.7854 2.91968 10.6146C2.84892 10.4438 2.8125 10.2607 2.8125 10.0758C2.8125 9.89085 2.84892 9.70776 2.91968 9.53693C2.99044 9.3661 3.09415 9.21088 3.2249 9.08013C3.35565 8.94938 3.51087 8.84567 3.6817 8.77491C3.85253 8.70415 4.03562 8.66773 4.22053 8.66773C4.40543 8.66773 4.58853 8.70415 4.75935 8.77491C4.93018 8.84567 5.0854 8.94938 5.21615 9.08013L5.62678 9.49357L8.8499 6.26763C8.98053 6.13667 9.13571 6.03277 9.30656 5.96188C9.4774 5.89098 9.66056 5.85449 9.84553 5.85449C10.0305 5.85449 10.2137 5.89098 10.3845 5.96188C10.5553 6.03277 10.7105 6.13667 10.8412 6.26763ZM10.8412 17.5176C10.9721 17.6483 11.076 17.8034 11.1469 17.9743C11.2178 18.1451 11.2543 18.3283 11.2543 18.5133C11.2543 18.6982 11.2178 18.8814 11.1469 19.0522C11.076 19.2231 10.9721 19.3783 10.8412 19.5089L6.6224 23.7276C6.49177 23.8586 6.33659 23.9625 6.16575 24.0334C5.9949 24.1043 5.81175 24.1408 5.62678 24.1408C5.44181 24.1408 5.25865 24.1043 5.08781 24.0334C4.91696 23.9625 4.76178 23.8586 4.63115 23.7276L3.2249 22.3214C2.96085 22.0573 2.8125 21.6992 2.8125 21.3258C2.8125 20.9523 2.96085 20.5942 3.2249 20.3301C3.48896 20.0661 3.84709 19.9177 4.22053 19.9177C4.59396 19.9177 4.9521 20.0661 5.21615 20.3301L5.62678 20.7436L8.8499 17.5176C8.98053 17.3867 9.13571 17.2828 9.30656 17.2119C9.4774 17.141 9.66056 17.1045 9.84553 17.1045C10.0305 17.1045 10.2137 17.141 10.3845 17.2119C10.5553 17.2828 10.7105 17.3867 10.8412 17.5176ZM10.8412 28.7676C10.9721 28.8983 11.076 29.0534 11.1469 29.2243C11.2178 29.3951 11.2543 29.5783 11.2543 29.7633C11.2543 29.9482 11.2178 30.1314 11.1469 30.3022C11.076 30.4731 10.9721 30.6283 10.8412 30.7589L6.6224 34.9776C6.49177 35.1086 6.33659 35.2125 6.16575 35.2834C5.9949 35.3543 5.81175 35.3908 5.62678 35.3908C5.44181 35.3908 5.25865 35.3543 5.08781 35.2834C4.91696 35.2125 4.76178 35.1086 4.63115 34.9776L3.2249 33.5714C2.96085 33.3073 2.8125 32.9492 2.8125 32.5758C2.8125 32.2023 2.96085 31.8442 3.2249 31.5801C3.48896 31.3161 3.84709 31.1677 4.22053 31.1677C4.59396 31.1677 4.9521 31.3161 5.21615 31.5801L5.62678 31.9936L8.8499 28.7676C8.98053 28.6367 9.13571 28.5328 9.30656 28.4619C9.4774 28.391 9.66056 28.3545 9.84553 28.3545C10.0305 28.3545 10.2137 28.391 10.3845 28.4619C10.5553 28.5328 10.7105 28.6367 10.8412 28.7676Z" fill="#CD010C"/>
</svg>
