<svg width="53" height="53" viewBox="0 0 53 53" fill="none" xmlns="http://www.w3.org/2000/svg">
<path d="M44.7188 8.69531H8.28125C7.51254 8.69531 6.77531 9.00068 6.23175 9.54425C5.68818 10.0878 5.38281 10.825 5.38281 11.5938V41.4062C5.38281 42.175 5.68818 42.9122 6.23175 43.4558C6.77531 43.9993 7.51254 44.3047 8.28125 44.3047H11.0555C11.2892 44.3044 11.518 44.2382 11.7158 44.1137C11.9135 43.9892 12.0722 43.8114 12.1734 43.6008C13.0118 41.8281 14.3364 40.33 15.9931 39.2809C17.6498 38.2318 19.5703 37.6748 21.5312 37.6748C23.4922 37.6748 25.4127 38.2318 27.0694 39.2809C28.7261 40.33 30.0507 41.8281 30.8891 43.6008C30.9903 43.8114 31.149 43.9892 31.3467 44.1137C31.5445 44.2382 31.7733 44.3044 32.007 44.3047H44.7188C45.4875 44.3047 46.2247 43.9993 46.7683 43.4558C47.3118 42.9122 47.6172 42.175 47.6172 41.4062V11.5938C47.6172 10.825 47.3118 10.0878 46.7683 9.54425C46.2247 9.00068 45.4875 8.69531 44.7188 8.69531ZM16.1484 29.8125C16.1484 28.7479 16.4641 27.7072 17.0556 26.822C17.6471 25.9368 18.4878 25.2468 19.4713 24.8394C20.4549 24.432 21.5372 24.3254 22.5814 24.5331C23.6255 24.7408 24.5847 25.2535 25.3375 26.0063C26.0903 26.7591 26.6029 27.7182 26.8106 28.7624C27.0183 29.8065 26.9117 30.8888 26.5043 31.8724C26.0969 32.856 25.407 33.6967 24.5218 34.2881C23.6366 34.8796 22.5959 35.1953 21.5312 35.1953C20.1053 35.1899 18.7393 34.621 17.7311 33.6127C16.7228 32.6044 16.1539 31.2384 16.1484 29.8125ZM45.1328 41.4062C45.1328 41.5161 45.0892 41.6214 45.0115 41.699C44.9339 41.7767 44.8286 41.8203 44.7188 41.8203H32.773C31.3237 39.2201 29.0196 37.2013 26.2516 36.1062C27.5725 35.1155 28.5483 33.7343 29.0406 32.1582C29.5329 30.5822 29.5169 28.8911 28.9947 27.3247C28.4726 25.7582 27.4708 24.3958 26.1313 23.4303C24.7918 22.4648 23.1824 21.9453 21.5312 21.9453C19.8801 21.9453 18.2707 22.4648 16.9312 23.4303C15.5917 24.3958 14.5899 25.7582 14.0678 27.3247C13.5456 28.8911 13.5296 30.5822 14.0219 32.1582C14.5142 33.7343 15.49 35.1155 16.8109 36.1062C14.0429 37.2013 11.7388 39.2201 10.2895 41.8203H8.28125C8.17306 41.8153 8.07064 41.77 7.99406 41.6934C7.91747 41.6169 7.87223 41.5144 7.86719 41.4062V11.5938C7.86719 11.4839 7.91081 11.3786 7.98846 11.301C8.06612 11.2233 8.17143 11.1797 8.28125 11.1797H44.7188C44.8286 11.1797 44.9339 11.2233 45.0115 11.301C45.0892 11.3786 45.1328 11.4839 45.1328 11.5938V41.4062ZM40.9922 16.5625V36.4375C40.9922 36.7669 40.8613 37.0829 40.6284 37.3159C40.3954 37.5488 40.0794 37.6797 39.75 37.6797H36.4375C36.1081 37.6797 35.7921 37.5488 35.5591 37.3159C35.3262 37.0829 35.1953 36.7669 35.1953 36.4375C35.1953 36.1081 35.3262 35.7921 35.5591 35.5591C35.7921 35.3262 36.1081 35.1953 36.4375 35.1953H38.5078V17.8047H14.4922V19.875C14.4922 20.2044 14.3613 20.5204 14.1284 20.7534C13.8954 20.9863 13.5794 21.1172 13.25 21.1172C12.9206 21.1172 12.6046 20.9863 12.3716 20.7534C12.1387 20.5204 12.0078 20.2044 12.0078 19.875V16.5625C12.0078 16.2331 12.1387 15.9171 12.3716 15.6841C12.6046 15.4512 12.9206 15.3203 13.25 15.3203H39.75C40.0794 15.3203 40.3954 15.4512 40.6284 15.6841C40.8613 15.9171 40.9922 16.2331 40.9922 16.5625Z" fill="#CD010C"/>
</svg>
