<svg width="45" height="46" viewBox="0 0 45 46" fill="none" xmlns="http://www.w3.org/2000/svg">
<path d="M20.625 9.60565H11.25C10.2554 9.60565 9.30161 10.0007 8.59835 10.704C7.89509 11.4073 7.5 12.3611 7.5 13.3557V33.9807C7.5 34.9752 7.89509 35.929 8.59835 36.6323C9.30161 37.3356 10.2554 37.7307 11.25 37.7307H31.875C32.8696 37.7307 33.8234 37.3356 34.5266 36.6323C35.2299 35.929 35.625 34.9752 35.625 33.9807V24.6057L20.625 9.60565ZM32.9737 6.9544C33.3197 6.59624 33.7335 6.31055 34.191 6.11402C34.6485 5.91749 35.1406 5.81404 35.6385 5.80971C36.1364 5.80539 36.6302 5.90027 37.0911 6.08882C37.5519 6.27737 37.9706 6.55582 38.3227 6.90792C38.6748 7.26002 38.9533 7.67871 39.1418 8.13957C39.3304 8.60043 39.4253 9.09423 39.4209 9.59216C39.4166 10.0901 39.3132 10.5822 39.1166 11.0397C38.9201 11.4972 38.6344 11.911 38.2762 12.2569L22.1775 28.3557H16.875V23.0532L32.9737 6.9544Z" stroke="#CD010C" stroke-width="2" stroke-linecap="round" stroke-linejoin="round"/>
</svg>
