<svg width="176" height="50" viewBox="0 0 176 50" fill="none" xmlns="http://www.w3.org/2000/svg">
<rect x="132" y="26" width="31.1127" height="31.1127" rx="3" transform="rotate(-45 132 26)" fill="#1B1B1B"/>
<circle cx="154.049" cy="25.9999" r="12.5995" fill="white"/>
<rect x="146.174" y="18.125" width="15.8614" height="15.8614" rx="3" fill="#1B1B1B"/>
<circle cx="154.028" cy="25.9788" r="5.49048" fill="white"/>
<rect width="3.55887" height="3.55887" rx="1" transform="matrix(0.707081 -0.707133 0.707081 0.707133 151.687 26)" fill="#1B1B1B"/>
<path d="M2.988 36.708V42H1.998V29.4C2.538 29.4 3.084 29.394 3.636 29.382C4.188 29.37 4.65 29.364 5.022 29.364C7.962 29.364 9.432 30.576 9.432 33C9.432 33.864 9.15 34.626 8.586 35.286C8.022 35.922 7.308 36.33 6.444 36.51L10.854 42H9.63L5.436 36.708H2.988ZM4.968 30.3C4.704 30.3 4.044 30.312 2.988 30.336V35.772H5.166C6.018 35.772 6.762 35.514 7.398 34.998C8.058 34.482 8.388 33.816 8.388 33C8.388 31.2 7.248 30.3 4.968 30.3ZM18.3945 40.29L18.7005 41.01C17.9685 41.778 16.9725 42.162 15.7125 42.162C14.4165 42.162 13.3785 41.778 12.5985 41.01C11.8065 40.242 11.4105 39.222 11.4105 37.95C11.4105 36.726 11.7705 35.718 12.4905 34.926C13.2225 34.134 14.2305 33.738 15.5145 33.738C16.5585 33.738 17.4345 34.074 18.1425 34.746C18.8385 35.406 19.1865 36.288 19.1865 37.392C19.1865 37.68 19.1685 37.932 19.1325 38.148H12.4545C12.4905 39.12 12.8085 39.888 13.4085 40.452C14.0085 41.004 14.7945 41.28 15.7665 41.28C16.8945 41.28 17.7705 40.95 18.3945 40.29ZM15.4245 34.62C14.5605 34.62 13.8585 34.872 13.3185 35.376C12.7905 35.88 12.4845 36.546 12.4005 37.374H18.2325C18.2205 36.522 17.9625 35.85 17.4585 35.358C16.9545 34.866 16.2765 34.62 15.4245 34.62ZM28.4133 45.6H27.4773V41.118C26.7453 41.814 25.8633 42.162 24.8313 42.162C23.5833 42.162 22.5813 41.784 21.8253 41.028C21.0813 40.248 20.7093 39.222 20.7093 37.95C20.7093 36.774 21.1353 35.778 21.9873 34.962C22.8393 34.146 23.9073 33.738 25.1913 33.738C26.4273 33.738 27.5013 34.032 28.4133 34.62V45.6ZM24.9393 41.28C25.4193 41.28 25.8993 41.166 26.3793 40.938C26.8593 40.698 27.2253 40.416 27.4773 40.092V35.214C26.7813 34.818 26.0133 34.62 25.1733 34.62C24.1773 34.62 23.3493 34.944 22.6893 35.592C22.0293 36.24 21.6993 37.038 21.6993 37.986C21.6993 38.982 21.9933 39.78 22.5813 40.38C23.1693 40.98 23.9553 41.28 24.9393 41.28ZM37.2637 33.9H38.1997V42H37.2637V40.722C36.9277 41.142 36.4777 41.49 35.9137 41.766C35.3617 42.03 34.7857 42.162 34.1857 42.162C32.1217 42.162 31.0897 40.974 31.0897 38.598V33.9H32.0257V38.4C32.0257 40.32 32.8597 41.28 34.5277 41.28C35.0317 41.28 35.5357 41.148 36.0397 40.884C36.5557 40.608 36.9637 40.272 37.2637 39.876V33.9ZM47.4687 40.29L47.7747 41.01C47.0427 41.778 46.0467 42.162 44.7867 42.162C43.4907 42.162 42.4527 41.778 41.6727 41.01C40.8807 40.242 40.4847 39.222 40.4847 37.95C40.4847 36.726 40.8447 35.718 41.5647 34.926C42.2967 34.134 43.3047 33.738 44.5887 33.738C45.6327 33.738 46.5087 34.074 47.2167 34.746C47.9127 35.406 48.2607 36.288 48.2607 37.392C48.2607 37.68 48.2427 37.932 48.2067 38.148H41.5287C41.5647 39.12 41.8827 39.888 42.4827 40.452C43.0827 41.004 43.8687 41.28 44.8407 41.28C45.9687 41.28 46.8447 40.95 47.4687 40.29ZM44.4987 34.62C43.6347 34.62 42.9327 34.872 42.3927 35.376C41.8647 35.88 41.5587 36.546 41.4747 37.374H47.3067C47.2947 36.522 47.0367 35.85 46.5327 35.358C46.0287 34.866 45.3507 34.62 44.4987 34.62ZM54.6941 39.876C54.6941 39.504 54.5381 39.204 54.2261 38.976C53.9261 38.748 53.5541 38.568 53.1101 38.436C52.6781 38.304 52.2401 38.16 51.7961 38.004C51.3521 37.836 50.9741 37.578 50.6621 37.23C50.3621 36.87 50.2121 36.42 50.2121 35.88C50.2121 35.232 50.4521 34.716 50.9321 34.332C51.4121 33.936 52.0421 33.738 52.8221 33.738C53.9381 33.738 54.7841 34.038 55.3601 34.638L54.9641 35.34C54.4121 34.824 53.7041 34.566 52.8401 34.566C52.3601 34.566 51.9641 34.692 51.6521 34.944C51.3521 35.184 51.2021 35.49 51.2021 35.862C51.2021 36.246 51.3521 36.564 51.6521 36.816C51.9641 37.056 52.3361 37.248 52.7681 37.392C53.2121 37.524 53.6561 37.668 54.1001 37.824C54.5441 37.98 54.9161 38.226 55.2161 38.562C55.5281 38.898 55.6841 39.324 55.6841 39.84C55.6841 40.572 55.4081 41.142 54.8561 41.55C54.3161 41.958 53.6201 42.162 52.7681 42.162C52.2401 42.162 51.6881 42.042 51.1121 41.802C50.5721 41.574 50.2001 41.304 49.9961 40.992L50.5181 40.38C50.7461 40.656 51.0881 40.884 51.5441 41.064C52.0121 41.244 52.4561 41.334 52.8761 41.334C53.4041 41.334 53.8361 41.208 54.1721 40.956C54.5201 40.692 54.6941 40.332 54.6941 39.876ZM57.8436 38.922V31.65H58.7796V33.9H62.0376V34.782H58.7796V38.778C58.7796 40.41 59.3856 41.226 60.5976 41.226C61.0776 41.226 61.5096 41.082 61.8936 40.794L62.1996 41.532C61.7076 41.916 61.1016 42.108 60.3816 42.108C58.6896 42.108 57.8436 41.046 57.8436 38.922ZM68.5647 42H68.3267V30.1H68.5477C69.0464 30.1 69.5734 30.0943 70.1287 30.083C71.2394 30.0603 71.8061 30.049 71.8287 30.049C74.1407 30.049 75.8521 30.6383 76.9627 31.817C77.9941 32.9163 78.5097 34.2877 78.5097 35.931C78.5097 37.699 77.9147 39.161 76.7247 40.317C75.5461 41.4617 73.8687 42.034 71.6927 42.034C71.2394 42.034 70.7634 42.0283 70.2647 42.017C69.7774 42.0057 69.2107 42 68.5647 42ZM71.7947 32.004C71.3527 32.004 70.8937 32.021 70.4177 32.055V40.045C70.9391 40.0677 71.3867 40.079 71.7607 40.079C73.1774 40.079 74.2881 39.705 75.0927 38.957C75.8974 38.209 76.2997 37.2003 76.2997 35.931C76.2997 34.7183 75.8974 33.7607 75.0927 33.058C74.2994 32.3553 73.2001 32.004 71.7947 32.004ZM86.1349 39.858L86.6959 41.235C85.9366 41.8697 84.9619 42.187 83.7719 42.187C82.5479 42.187 81.5506 41.8187 80.7799 41.082C80.0319 40.3567 79.6579 39.3877 79.6579 38.175C79.6579 37.0417 80.0262 36.0897 80.7629 35.319C81.4996 34.5483 82.4799 34.163 83.7039 34.163C84.7126 34.163 85.5682 34.4973 86.2709 35.166C86.9736 35.8347 87.3249 36.6847 87.3249 37.716C87.3249 38.1693 87.2852 38.5207 87.2059 38.77H81.6809C81.7602 39.3253 82.0039 39.7617 82.4119 40.079C82.8312 40.3963 83.3526 40.555 83.9759 40.555C84.8259 40.555 85.5456 40.3227 86.1349 39.858ZM83.6189 35.795C82.5082 35.795 81.8396 36.3503 81.6129 37.461H85.3699C85.3812 36.9737 85.2226 36.577 84.8939 36.271C84.5766 35.9537 84.1516 35.795 83.6189 35.795ZM88.6445 36.492C88.6445 35.778 88.9052 35.2113 89.4265 34.792C89.9479 34.3727 90.6222 34.163 91.4495 34.163C92.6962 34.163 93.6652 34.486 94.3565 35.132L93.6255 36.526C93.0022 36.0387 92.3109 35.795 91.5515 35.795C91.2795 35.795 91.0529 35.863 90.8715 35.999C90.6902 36.1237 90.5995 36.2767 90.5995 36.458C90.5995 36.832 91.0812 37.1437 92.0445 37.393C92.3959 37.4723 92.7075 37.563 92.9795 37.665C93.2515 37.7557 93.5292 37.8917 93.8125 38.073C94.1072 38.243 94.3339 38.4697 94.4925 38.753C94.6512 39.0363 94.7305 39.365 94.7305 39.739C94.7305 40.487 94.4472 41.082 93.8805 41.524C93.3252 41.966 92.5772 42.187 91.6365 42.187C90.9679 42.187 90.3162 42.0453 89.6815 41.762C89.0355 41.4673 88.6219 41.1727 88.4405 40.878L89.3925 39.603C89.6079 39.8637 89.9649 40.0847 90.4635 40.266C90.9735 40.4587 91.4099 40.555 91.7725 40.555C92.2145 40.6003 92.5262 40.4587 92.7075 40.13C92.8889 39.79 92.7699 39.5123 92.3505 39.297C92.1805 39.2063 91.9142 39.11 91.5515 39.008C91.2002 38.906 90.8715 38.804 90.5655 38.702C90.2709 38.5887 89.9649 38.447 89.6475 38.277C89.3415 38.107 89.0979 37.8747 88.9165 37.58C88.7352 37.274 88.6445 36.9113 88.6445 36.492ZM98.6972 42H96.7422V34.35H98.6972V42ZM96.5382 31.596C96.5382 31.256 96.6516 30.984 96.8782 30.78C97.1162 30.5647 97.4109 30.457 97.7622 30.457C98.0682 30.457 98.3289 30.5647 98.5442 30.78C98.7709 30.9953 98.8842 31.2673 98.8842 31.596C98.8842 31.9587 98.7709 32.2533 98.5442 32.48C98.3289 32.7067 98.0682 32.82 97.7622 32.82C97.4109 32.82 97.1162 32.7067 96.8782 32.48C96.6516 32.2533 96.5382 31.9587 96.5382 31.596ZM100.165 43.037C100.165 42.4363 100.386 41.9377 100.828 41.541C101.27 41.133 101.876 40.844 102.647 40.674C102.556 40.5153 102.511 40.3397 102.511 40.147C102.511 39.9317 102.568 39.7503 102.681 39.603C102.114 39.3763 101.667 39.0363 101.338 38.583C101.021 38.1183 100.862 37.6027 100.862 37.036C100.862 36.254 101.162 35.5797 101.763 35.013C102.364 34.4463 103.151 34.163 104.126 34.163C104.863 34.163 105.514 34.3443 106.081 34.707L108.393 34.197L108.461 35.761L107.186 36.05C107.311 36.39 107.373 36.7187 107.373 37.036C107.373 37.8067 107.073 38.4753 106.472 39.042C105.883 39.586 105.101 39.858 104.126 39.858H103.99C103.967 39.9487 103.956 40.045 103.956 40.147C103.956 40.2943 103.99 40.4247 104.058 40.538H104.143C105.333 40.538 106.291 40.7477 107.016 41.167C107.753 41.5977 108.121 42.221 108.121 43.037C108.121 43.853 107.753 44.4763 107.016 44.907C106.291 45.3263 105.333 45.536 104.143 45.536C102.919 45.536 101.95 45.3207 101.236 44.89C100.522 44.4707 100.165 43.853 100.165 43.037ZM101.984 43.037C101.984 43.3317 102.171 43.5583 102.545 43.717C102.93 43.887 103.463 43.972 104.143 43.972C105.571 43.972 106.285 43.6603 106.285 43.037C106.285 42.7537 106.098 42.527 105.724 42.357C105.35 42.187 104.823 42.102 104.143 42.102C103.474 42.102 102.947 42.187 102.562 42.357C102.177 42.527 101.984 42.7537 101.984 43.037ZM104.126 38.277C104.545 38.277 104.885 38.1637 105.146 37.937C105.418 37.7103 105.554 37.41 105.554 37.036C105.554 36.6507 105.424 36.339 105.163 36.101C104.902 35.863 104.557 35.744 104.126 35.744C103.695 35.744 103.35 35.8687 103.089 36.118C102.828 36.356 102.698 36.662 102.698 37.036C102.698 37.3987 102.828 37.699 103.089 37.937C103.35 38.1637 103.695 38.277 104.126 38.277ZM111.606 42H109.651V34.35H111.606V35.115C112.173 34.5143 112.904 34.214 113.799 34.214C115.896 34.214 116.944 35.3133 116.944 37.512V42H114.989V37.852C114.989 36.6507 114.417 36.05 113.272 36.05C112.649 36.05 112.094 36.2937 111.606 36.781V42Z" fill="#1B1B1B"/>
<path d="M31.04 10.696V15H29.68V3.8C30.128 3.8 30.6027 3.79467 31.104 3.784C31.6053 3.77333 32.1067 3.768 32.608 3.768C34.08 3.768 35.136 4.09867 35.776 4.76C36.4267 5.41067 36.752 6.23733 36.752 7.24C36.752 8.21067 36.4 9.04267 35.696 9.736C35.0133 10.4187 34.0213 10.76 32.72 10.76C32.0373 10.76 31.4773 10.7387 31.04 10.696ZM32.736 5.048C32.544 5.048 31.9787 5.05867 31.04 5.08V9.4C31.712 9.45333 32.256 9.48 32.672 9.48C33.4933 9.48 34.1387 9.28267 34.608 8.888C35.0773 8.48267 35.312 7.928 35.312 7.224C35.312 6.53067 35.0933 5.99733 34.656 5.624C34.2293 5.24 33.5893 5.048 32.736 5.048ZM38.411 9.32L38.075 8.296C38.7897 7.85867 39.5897 7.64 40.475 7.64C41.4457 7.64 42.1497 7.88 42.587 8.36C43.0243 8.84 43.243 9.58133 43.243 10.584V15H42.027V14.072C41.4617 14.7653 40.6937 15.112 39.723 15.112C39.0617 15.112 38.5283 14.9147 38.123 14.52C37.7177 14.1147 37.515 13.5707 37.515 12.888C37.515 12.184 37.7657 11.6293 38.267 11.224C38.7683 10.808 39.4243 10.6 40.235 10.6C40.9923 10.6 41.5897 10.7547 42.027 11.064C42.027 10.2533 41.915 9.672 41.691 9.32C41.467 8.968 41.035 8.792 40.395 8.792C39.7443 8.792 39.083 8.968 38.411 9.32ZM40.171 13.96C40.8857 13.96 41.5043 13.6507 42.027 13.032V12.12C41.579 11.8 41.0403 11.64 40.411 11.64C39.9737 11.64 39.6057 11.7467 39.307 11.96C39.019 12.1627 38.875 12.4507 38.875 12.824C38.875 13.176 38.987 13.4533 39.211 13.656C39.4457 13.8587 39.7657 13.96 40.171 13.96ZM47.7704 15.16C47.2264 15.16 46.6504 15.0693 46.0424 14.888C45.4557 14.696 45.0397 14.4613 44.7944 14.184L45.4504 13.224C45.7384 13.4587 46.0797 13.6507 46.4744 13.8C46.8797 13.9387 47.2477 14.008 47.5784 14.008C48.133 14.008 48.5864 13.9013 48.9384 13.688C49.2904 13.464 49.4664 13.176 49.4664 12.824C49.4664 12.5253 49.3384 12.296 49.0824 12.136C48.837 11.976 48.4957 11.896 48.0584 11.896H46.8424V10.856H47.9784C48.341 10.856 48.6397 10.76 48.8744 10.568C49.109 10.3653 49.2264 10.12 49.2264 9.832C49.2264 9.512 49.0877 9.26133 48.8104 9.08C48.533 8.888 48.1597 8.792 47.6904 8.792C46.933 8.792 46.213 9.05867 45.5304 9.592L45.0344 8.6C45.3224 8.30133 45.7224 8.06667 46.2344 7.896C46.757 7.72533 47.3064 7.64 47.8824 7.64C48.7357 7.64 49.397 7.81067 49.8664 8.152C50.3464 8.49333 50.5864 8.968 50.5864 9.576C50.5864 10.408 50.165 10.9733 49.3224 11.272V11.304C49.7917 11.3573 50.1597 11.544 50.4264 11.864C50.693 12.1733 50.8264 12.552 50.8264 13C50.8264 13.6613 50.5437 14.1893 49.9784 14.584C49.4237 14.968 48.6877 15.16 47.7704 15.16ZM54.057 18.2H52.777V7.8H54.057V8.648C54.313 8.34933 54.665 8.10933 55.113 7.928C55.561 7.736 56.025 7.64 56.505 7.64C57.529 7.64 58.3343 7.98133 58.921 8.664C59.529 9.336 59.833 10.2107 59.833 11.288C59.833 12.3867 59.4863 13.3093 58.793 14.056C58.1103 14.792 57.209 15.16 56.089 15.16C55.225 15.16 54.5477 14.9947 54.057 14.664V18.2ZM56.137 8.84C55.2837 8.84 54.5903 9.17067 54.057 9.832V13.4C54.6223 13.7733 55.2623 13.96 55.977 13.96C56.7343 13.96 57.337 13.72 57.785 13.24C58.2437 12.7493 58.473 12.1147 58.473 11.336C58.473 10.5787 58.265 9.976 57.849 9.528C57.433 9.06933 56.8623 8.84 56.137 8.84ZM62.0516 9.32L61.7156 8.296C62.4303 7.85867 63.2303 7.64 64.1156 7.64C65.0863 7.64 65.7903 7.88 66.2276 8.36C66.665 8.84 66.8836 9.58133 66.8836 10.584V15H65.6676V14.072C65.1023 14.7653 64.3343 15.112 63.3636 15.112C62.7023 15.112 62.169 14.9147 61.7636 14.52C61.3583 14.1147 61.1556 13.5707 61.1556 12.888C61.1556 12.184 61.4063 11.6293 61.9076 11.224C62.409 10.808 63.065 10.6 63.8756 10.6C64.633 10.6 65.2303 10.7547 65.6676 11.064C65.6676 10.2533 65.5556 9.672 65.3316 9.32C65.1076 8.968 64.6756 8.792 64.0356 8.792C63.385 8.792 62.7236 8.968 62.0516 9.32ZM63.8116 13.96C64.5263 13.96 65.145 13.6507 65.6676 13.032V12.12C65.2196 11.8 64.681 11.64 64.0516 11.64C63.6143 11.64 63.2463 11.7467 62.9476 11.96C62.6596 12.1627 62.5156 12.4507 62.5156 12.824C62.5156 13.176 62.6276 13.4533 62.8516 13.656C63.0863 13.8587 63.4063 13.96 63.8116 13.96ZM74.595 3.64L75.283 4.648C75.027 5 74.7177 5.24 74.355 5.368C73.9603 5.50667 73.5123 5.61333 73.011 5.688C72.5203 5.76267 72.0563 5.896 71.619 6.088C70.531 6.58933 69.923 7.74667 69.795 9.56H69.827C70.0617 9.05867 70.4403 8.65333 70.963 8.344C71.4963 8.03467 72.067 7.88 72.675 7.88C73.699 7.88 74.5097 8.20533 75.107 8.856C75.715 9.50667 76.019 10.376 76.019 11.464C76.019 12.488 75.6723 13.3627 74.979 14.088C74.2963 14.8027 73.411 15.16 72.323 15.16C71.1497 15.16 70.2217 14.76 69.539 13.96C68.8563 13.1707 68.515 12.0773 68.515 10.68C68.515 7.56533 69.4057 5.62933 71.187 4.872C71.5923 4.69067 72.0617 4.55733 72.595 4.472C73.011 4.39733 73.3097 4.33867 73.491 4.296C73.6723 4.25333 73.8643 4.17867 74.067 4.072C74.2803 3.96533 74.4563 3.82133 74.595 3.64ZM69.875 10.92C69.875 11.8373 70.099 12.5733 70.547 13.128C70.995 13.6827 71.5763 13.96 72.291 13.96C72.9843 13.96 73.5497 13.7253 73.987 13.256C74.435 12.7973 74.659 12.2213 74.659 11.528C74.659 10.792 74.451 10.2 74.035 9.752C73.6297 9.304 73.0697 9.08 72.355 9.08C71.7043 9.08 71.1603 9.26133 70.723 9.624C70.2643 9.99733 69.9817 10.4293 69.875 10.92ZM78.4311 14.104C77.7271 13.3787 77.3751 12.4773 77.3751 11.4C77.3751 10.312 77.7271 9.416 78.4311 8.712C79.1458 7.99733 80.0738 7.64 81.2151 7.64C82.3565 7.64 83.2791 7.99733 83.9831 8.712C84.6978 9.416 85.0551 10.312 85.0551 11.4C85.0551 12.488 84.6978 13.3893 83.9831 14.104C83.2791 14.808 82.3565 15.16 81.2151 15.16C80.0845 15.16 79.1565 14.808 78.4311 14.104ZM79.4391 9.56C78.9698 10.0293 78.7351 10.6427 78.7351 11.4C78.7351 12.1573 78.9645 12.7707 79.4231 13.24C79.8925 13.72 80.4898 13.96 81.2151 13.96C81.9405 13.96 82.5325 13.7253 82.9911 13.256C83.4605 12.776 83.6951 12.1573 83.6951 11.4C83.6951 10.664 83.4605 10.0507 82.9911 9.56C82.5325 9.08 81.9405 8.84 81.2151 8.84C80.4898 8.84 79.8978 9.08 79.4391 9.56ZM88.3488 9.08H85.7088V7.8H92.2688V9.08H89.6288V15H88.3488V9.08ZM94.0516 9.32L93.7156 8.296C94.4303 7.85867 95.2303 7.64 96.1156 7.64C97.0863 7.64 97.7903 7.88 98.2276 8.36C98.665 8.84 98.8836 9.58133 98.8836 10.584V15H97.6676V14.072C97.1023 14.7653 96.3343 15.112 95.3636 15.112C94.7023 15.112 94.169 14.9147 93.7636 14.52C93.3583 14.1147 93.1556 13.5707 93.1556 12.888C93.1556 12.184 93.4063 11.6293 93.9076 11.224C94.409 10.808 95.065 10.6 95.8756 10.6C96.633 10.6 97.2303 10.7547 97.6676 11.064C97.6676 10.2533 97.5556 9.672 97.3316 9.32C97.1076 8.968 96.6756 8.792 96.0356 8.792C95.385 8.792 94.7236 8.968 94.0516 9.32ZM95.8116 13.96C96.5263 13.96 97.145 13.6507 97.6676 13.032V12.12C97.2196 11.8 96.681 11.64 96.0516 11.64C95.6143 11.64 95.2463 11.7467 94.9476 11.96C94.6596 12.1627 94.5156 12.4507 94.5156 12.824C94.5156 13.176 94.6276 13.4533 94.8516 13.656C95.0863 13.8587 95.4063 13.96 95.8116 13.96ZM107.587 15H106.307V11.96H102.307V15H101.027V7.8H102.307V10.76H106.307V7.8H107.587V15ZM110.478 14.104C109.774 13.3787 109.422 12.4773 109.422 11.4C109.422 10.312 109.774 9.416 110.478 8.712C111.193 7.99733 112.121 7.64 113.262 7.64C114.403 7.64 115.326 7.99733 116.03 8.712C116.745 9.416 117.102 10.312 117.102 11.4C117.102 12.488 116.745 13.3893 116.03 14.104C115.326 14.808 114.403 15.16 113.262 15.16C112.131 15.16 111.203 14.808 110.478 14.104ZM111.486 9.56C111.017 10.0293 110.782 10.6427 110.782 11.4C110.782 12.1573 111.011 12.7707 111.47 13.24C111.939 13.72 112.537 13.96 113.262 13.96C113.987 13.96 114.579 13.7253 115.038 13.256C115.507 12.776 115.742 12.1573 115.742 11.4C115.742 10.664 115.507 10.0507 115.038 9.56C114.579 9.08 113.987 8.84 113.262 8.84C112.537 8.84 111.945 9.08 111.486 9.56Z" fill="#1B1B1B"/>
</svg>
