<svg width="48" height="48" viewBox="0 0 48 48" fill="none" xmlns="http://www.w3.org/2000/svg">
<path d="M40.3204 13.6805C34.5604 4.80049 22.8004 2.16049 13.6804 7.68049C4.80045 13.2005 1.92045 25.2005 7.68045 34.0805L8.16045 34.8005L6.24045 42.0005L13.4404 40.0805L14.1604 40.5605C17.2804 42.2405 20.6404 43.2005 24.0004 43.2005C27.6004 43.2005 31.2005 42.2405 34.3205 40.3205C43.2005 34.5605 45.8405 22.8005 40.3204 13.6805ZM35.2804 32.1605C34.3204 33.6005 33.1205 34.5605 31.4405 34.8005C30.4805 34.8005 29.2804 35.2805 24.4804 33.3605C20.4004 31.4405 17.0404 28.3205 14.6404 24.7205C13.2004 23.0405 12.4804 20.8805 12.2404 18.7205C12.2404 16.8005 12.9604 15.1205 14.1604 13.9205C14.6404 13.4405 15.1204 13.2005 15.6004 13.2005H16.8004C17.2804 13.2005 17.7217 13.629 18.0004 14.1605C18.7828 15.6523 19.5668 16.6739 19.6804 18.4805C19.704 18.8547 19.7129 19.067 19.6804 19.4405C19.639 19.9166 19.6365 20.2046 19.4404 20.6405C19.2482 21.0679 18.9604 21.3605 18.7204 21.6005C18.2404 21.8405 18.0004 22.3205 18.2404 22.8005C19.2004 24.2405 20.4004 25.6805 21.6005 26.8805C23.0404 28.0805 24.4804 29.0405 26.1604 29.7605C26.6404 30.0005 27.1204 30.0005 27.3604 29.5205C27.6004 29.0405 28.8004 27.8405 29.2804 27.3605C29.7604 26.8805 30.0004 26.8805 30.4804 27.1205L34.3205 29.0405C34.8005 29.2805 35.2805 29.5205 35.5205 29.7605C35.7605 30.4805 35.7605 31.4405 35.2804 32.1605Z" fill="white"/>
</svg>
